<svg version="1.1" id="Layer_1" xmlns="http://www.w3.org/2000/svg" xmlns:xlink="http://www.w3.org/1999/xlink" x="0px" y="0px"
	 width="100%" viewBox="0 0 800 800" enable-background="new 0 0 800 800" xml:space="preserve">
<path fill="#F6F6F6" opacity="1.000000" stroke="none" 
	d="
M450.000000,801.000000 
	C301.500000,801.000000 153.499985,800.983521 5.500070,801.094055 
	C1.750610,801.096863 0.905242,800.249146 0.906701,796.499939 
	C1.009313,532.833313 1.009313,269.166656 0.906701,5.500036 
	C0.905242,1.750842 1.750842,0.905244 5.500036,0.906702 
	C269.166656,1.009302 532.833313,1.009302 796.499939,0.906703 
	C800.249146,0.905244 801.094788,1.750842 801.093323,5.500036 
	C800.990723,269.166656 800.990662,532.833313 801.093323,796.499939 
	C801.094788,800.249146 800.249573,801.098267 796.499878,801.094482 
	C681.166687,800.978882 565.833313,801.000000 450.000000,801.000000 
z"/>
<path fill="#1D1D1B" opacity="1.000000" stroke="none" 
	d="
M577.184265,401.798981 
	C577.092957,424.817078 577.138611,447.476990 577.165588,470.136932 
	C577.172546,476.002167 573.874573,479.551086 568.981201,482.232910 
	C541.985840,497.027954 515.043335,511.919434 488.077637,526.768616 
	C466.940918,538.407959 445.745148,549.941650 424.691284,561.728943 
	C419.238312,564.781860 414.146942,565.388123 408.052551,563.523193 
	C340.788055,542.941101 273.455688,522.580750 206.144669,502.150696 
	C196.977936,499.368378 194.312103,495.820251 194.307739,486.250061 
	C194.287933,442.757324 194.198730,399.264038 194.437500,355.772614 
	C194.464172,350.914307 192.930801,349.269714 188.462387,348.208221 
	C172.281433,344.364349 156.199081,340.105225 140.081604,335.994568 
	C127.837769,332.871857 124.454063,323.600555 131.919556,313.444824 
	C152.734436,285.129028 173.616928,256.862915 194.385574,228.513321 
	C197.185242,224.691666 200.778763,222.468979 205.148895,220.887054 
	C249.085983,204.982330 292.987061,188.978134 336.896149,172.996063 
	C337.675446,172.712433 338.428375,172.356277 339.563232,172.008362 
	C341.800995,170.578568 343.459869,171.759003 345.034912,172.536301 
	C353.244354,176.587830 361.429291,180.686447 369.762085,184.485077 
	C371.516937,185.285065 373.607849,186.003586 373.242737,188.959900 
	C372.638947,189.585251 372.174500,189.991104 371.718781,189.911057 
	C359.242615,187.719727 349.017914,194.781891 337.958496,198.250671 
	C328.956299,201.074203 320.218933,204.728882 310.913208,207.846054 
	C308.081512,208.190628 305.951080,207.129044 303.989868,205.923172 
	C300.435638,203.737808 298.870026,204.883484 298.487885,208.733093 
	C298.373810,209.882629 298.073975,211.023926 297.210144,212.314056 
	C286.222290,217.564224 274.833588,220.835129 263.827728,225.118317 
	C261.798981,225.907867 258.305389,225.790207 258.550507,228.648575 
	C258.758698,231.076187 262.035400,230.653778 264.061005,230.990021 
	C273.261719,232.517380 282.412842,234.323776 291.619873,235.814682 
	C294.569397,236.292297 297.563324,236.682465 300.659454,238.164841 
	C304.576538,242.230408 305.151489,247.617340 307.862091,251.940308 
	C309.432739,254.445267 310.742065,257.114380 312.350464,259.607544 
	C313.338654,261.139313 314.249603,262.732483 313.328979,265.013794 
	C312.443390,265.838379 311.685394,266.076385 310.481934,266.211487 
	C283.358734,261.502319 256.769165,256.059235 230.111252,250.974442 
	C226.512466,250.288010 222.869629,249.786545 219.311234,248.959671 
	C214.684601,247.884583 211.459579,249.096359 208.620377,253.077713 
	C195.086151,272.056458 181.074478,290.691071 167.532394,309.665802 
	C163.537277,315.263672 164.069763,316.742188 170.716812,318.439301 
	C211.373367,328.819519 251.966187,339.446045 292.598938,349.918030 
	C306.304626,353.450256 319.959503,357.181702 333.728668,360.466797 
	C339.576874,361.862091 340.807404,361.472290 344.033295,356.303284 
	C355.052399,338.646667 366.247040,321.101379 377.596191,303.205109 
	C379.899750,300.453857 381.675720,297.808655 383.306091,294.612915 
	C384.732727,293.187378 386.304169,293.241943 387.760590,293.081879 
	C398.902710,291.857361 408.958740,287.604492 418.564941,282.100861 
	C425.473938,278.142548 427.335876,278.316956 433.644104,284.007233 
	C435.874207,288.538177 437.411255,292.969421 439.754852,297.441956 
	C447.958313,314.563019 455.883667,331.408447 463.680603,348.314606 
	C466.909271,355.315338 468.291473,355.824829 475.084137,352.453033 
	C487.299103,346.389709 499.487610,340.273010 512.005371,333.980957 
	C516.263977,332.072205 519.955688,329.841522 524.347534,328.167419 
	C532.993958,329.121490 535.632141,331.549683 536.898560,339.455261 
	C537.363098,342.355560 538.284363,345.230377 537.498169,348.604614 
	C530.284607,353.853302 522.174683,356.585144 514.521423,360.170349 
	C498.241180,367.796906 481.977142,375.468292 465.580170,382.848480 
	C459.324188,385.664276 457.534363,385.308380 454.512726,379.146667 
	C447.765747,365.388458 440.178375,352.066833 433.467041,338.291260 
	C432.425018,336.152344 431.562042,332.575073 428.836945,333.214355 
	C426.428741,333.779266 427.518890,337.270996 427.511383,339.461884 
	C427.417816,366.773834 427.516205,394.086151 427.442078,421.811096 
	C429.338593,455.016083 428.243652,487.840668 428.514893,520.650330 
	C428.594086,530.230652 429.573975,530.955078 438.003876,526.269958 
	C470.480865,508.220428 502.925476,490.112213 535.317932,471.911163 
	C538.803711,469.952515 542.298706,468.000305 545.815674,466.109161 
	C549.988708,463.865173 551.571533,460.678528 551.540161,455.973541 
	C551.398132,434.643677 551.469238,413.312195 551.485901,391.981323 
	C551.487854,389.487152 551.307495,386.977997 552.002319,384.130432 
	C553.216736,381.978424 554.711243,382.175110 555.825317,383.417053 
	C561.947021,390.241669 569.527771,395.247253 576.852539,400.579773 
	C577.102722,400.761963 577.199707,401.127258 577.184265,401.798981 
z"/>
<path fill="#050505" opacity="1.000000" stroke="none" 
	d="
M373.250000,189.121918 
	C371.735291,185.521225 368.299713,185.525208 365.748962,184.237076 
	C357.444946,180.043503 349.037811,176.054047 340.301636,171.984406 
	C334.557220,167.716736 328.012756,165.652939 321.998383,162.607224 
	C318.820160,160.997757 318.604736,160.196350 321.338318,157.733047 
	C361.363434,121.665596 417.577545,129.265503 446.408630,174.726288 
	C447.022034,175.693512 447.838318,176.532104 448.785767,177.680786 
	C454.123688,184.941422 456.660065,192.833572 457.095947,201.828125 
	C456.464264,208.960663 459.573059,212.996613 465.811371,215.503815 
	C473.504333,218.595642 480.846832,222.523682 488.765167,226.052765 
	C497.024445,230.600021 504.947540,234.995209 513.821045,238.289490 
	C518.936462,242.168549 524.693909,243.978043 530.040283,246.598083 
	C540.760254,251.851471 551.468262,257.134796 562.067017,262.625854 
	C565.900757,264.612091 569.176392,264.685791 572.654724,262.021637 
	C575.289978,260.003265 578.481812,258.876007 581.702087,257.065125 
	C589.447876,253.538910 597.042542,250.873322 605.686707,250.747803 
	C607.580688,251.739456 609.232971,251.601273 610.906799,251.544662 
	C661.542908,249.831223 699.390747,290.025757 694.955139,340.614044 
	C694.592834,344.746338 693.069824,343.753632 690.675903,342.577362 
	C672.156982,333.477753 653.607056,324.441071 635.074280,315.369629 
	C626.063843,310.959198 617.352478,311.157593 609.250000,317.367889 
	C596.968933,326.780975 597.633057,345.621429 610.758972,353.939575 
	C620.747009,360.269226 631.782043,364.691162 642.350037,369.962311 
	C652.766724,375.158081 663.280151,380.160034 674.297485,385.512482 
	C664.121094,395.414764 653.045776,402.983154 639.825134,407.205872 
	C618.435852,414.037811 597.803284,411.679626 577.414795,402.109192 
	C568.735352,396.510681 560.393372,390.892273 553.509583,383.030457 
	C548.240173,378.839600 545.693298,373.017334 542.199463,367.422485 
	C539.651367,362.256866 537.899780,357.196381 536.749023,351.551605 
	C536.709412,350.944122 536.709045,350.700470 536.844727,349.740753 
	C536.316406,344.451721 535.551575,339.890320 535.024658,335.301605 
	C534.697693,332.455048 532.233215,332.265015 530.468628,331.280212 
	C528.750488,330.321350 526.826660,329.731049 524.630737,328.965363 
	C522.899231,328.921356 521.683167,328.406616 520.501404,327.772858 
	C508.783203,321.488281 496.460846,316.448029 484.654022,310.341797 
	C467.836212,301.643890 450.578278,293.846222 433.301453,285.259766 
	C427.783569,279.905426 425.683716,279.623566 420.014191,282.953979 
	C409.760040,288.977509 398.835846,293.192169 386.994781,294.793549 
	C386.234650,294.896332 385.404297,294.479462 384.296082,294.384521 
	C382.884583,296.825287 380.655396,296.370544 378.768066,296.376587 
	C356.660156,296.447327 337.400299,289.150574 321.359924,273.815796 
	C318.605804,271.182831 315.634003,268.748352 313.132233,265.358337 
	C313.204651,261.818756 310.729431,259.982788 309.357910,257.604523 
	C306.052032,251.871979 303.340027,245.868439 301.003296,239.293365 
	C297.906616,237.171890 297.841370,233.964035 297.364563,231.108749 
	C296.334412,224.939850 295.606201,218.723618 296.818604,212.098480 
	C297.136688,201.184341 297.153809,201.176025 306.533966,205.770523 
	C307.412903,206.201050 308.332886,206.547882 309.591797,206.966721 
	C313.944183,207.589081 317.544342,209.270889 321.109741,211.041290 
	C332.584412,216.739075 343.954620,222.649139 355.508331,228.184204 
	C361.846191,231.220520 368.209106,233.811630 375.604828,231.199966 
	C384.194305,228.166748 390.034210,221.275116 390.567596,212.513565 
	C391.093872,203.868286 385.838257,195.216827 377.879242,191.633072 
	C376.371155,190.954041 374.693604,190.621902 373.250000,189.121918 
z"/>
<path fill="#1E1E1C" opacity="1.000000" stroke="none" 
	d="
M514.102783,239.005280 
	C508.796265,239.094498 505.131744,235.865021 501.006989,233.910416 
	C497.003845,232.013458 492.726959,230.535889 489.142395,227.252686 
	C489.003662,224.337402 491.273163,223.885605 492.922302,223.002441 
	C497.903809,220.334656 503.027527,217.939270 508.041626,215.331879 
	C509.324799,214.664612 511.250671,214.143906 511.105652,212.454407 
	C510.921722,210.311951 508.685852,210.479645 507.155090,210.233582 
	C491.895172,207.780716 476.600494,205.557816 461.280243,203.514069 
	C459.647766,203.296295 457.932434,203.505753 456.174072,202.230637 
	C455.955811,193.528885 451.874756,186.287766 449.038574,178.303162 
	C464.642334,180.088318 480.270264,182.266708 495.904633,184.398056 
	C517.302917,187.315201 538.558899,191.254272 560.077515,193.309326 
	C564.695129,193.750336 568.007263,196.188705 570.651489,199.973282 
	C582.362610,216.734909 594.185059,233.418747 606.021362,250.466125 
	C602.141663,252.873032 597.597595,252.599075 593.509094,254.069458 
	C589.975403,255.340317 586.451843,256.639038 582.568726,257.979523 
	C580.333191,257.721680 579.580994,256.135101 578.630310,254.806961 
	C571.669006,245.081543 564.487244,235.505905 557.882080,225.537491 
	C555.349792,221.715820 552.698486,221.003708 548.713196,222.911957 
	C537.339905,228.357666 525.617188,233.059875 514.102783,239.005280 
z"/>
<path fill="#0B0B0B" opacity="1.000000" stroke="none" 
	d="
M300.196136,557.568115 
	C300.600342,562.899231 298.581696,568.066833 301.585297,572.770264 
	C299.490021,573.727600 297.818756,571.866394 295.849121,571.901733 
	C295.041473,571.916260 294.422028,571.144531 294.836670,570.130615 
	C297.606079,563.358521 297.630157,560.010376 294.729797,554.842041 
	C294.220520,553.934509 293.983978,553.243896 295.148956,553.148926 
	C297.187408,552.982727 297.962708,550.895020 299.841034,550.342590 
	C299.971863,551.877075 300.096619,553.340515 300.224274,554.837524 
	C310.740509,551.871460 315.091705,555.169739 315.241974,565.768372 
	C315.298737,569.772034 314.132355,573.966492 317.161530,578.221619 
	C313.873993,577.260498 311.279572,576.502014 308.685181,575.743591 
	C311.621979,575.428406 312.281860,573.794739 312.025085,571.177673 
	C311.799194,568.875427 312.020874,566.532471 311.969849,564.209229 
	C311.806244,556.758606 307.198303,553.966797 300.196136,557.568115 
z"/>
<path fill="#222222" opacity="1.000000" stroke="none" 
	d="
M204.360306,515.446167 
	C204.312775,513.266785 204.769760,511.393463 202.129822,510.072449 
	C208.973114,510.052002 208.945465,510.051910 208.929184,515.407715 
	C208.904465,523.539001 208.924988,531.670471 208.920700,539.801819 
	C208.919754,541.599854 208.575439,543.519592 211.132599,544.612549 
	C207.264893,545.689026 204.501465,543.069214 200.978088,542.714294 
	C203.964981,541.877686 204.520065,540.004883 204.435303,537.286621 
	C204.212997,530.157837 204.360291,523.017578 204.360306,515.446167 
z"/>
<path fill="#141414" opacity="1.000000" stroke="none" 
	d="
M206.293152,629.158936 
	C201.256561,631.026306 200.679153,632.858765 204.148315,636.494568 
	C207.215286,639.708801 210.700836,642.522095 213.978409,645.537659 
	C215.447937,646.889648 216.639954,648.402039 217.174240,650.425049 
	C218.795883,656.565247 215.972275,659.454285 208.346603,658.896057 
	C207.908005,658.631897 207.798050,658.490906 207.853149,658.138550 
	C210.463608,657.886475 213.244644,658.423950 214.304428,655.319885 
	C215.245575,652.563293 213.582077,650.588501 211.819427,648.753479 
	C208.379333,645.172180 203.992050,642.536987 201.167206,638.356506 
	C197.401947,632.784424 199.580521,628.348022 206.575424,628.027405 
	C207.143494,628.601562 207.009949,628.993469 206.293152,629.158936 
z"/>
<path fill="#171717" opacity="1.000000" stroke="none" 
	d="
M203.211533,574.191895 
	C202.731384,573.549866 202.571854,573.144531 202.392319,572.400146 
	C202.368057,571.669128 202.438736,571.290344 202.799011,570.738037 
	C206.089020,570.727600 207.532852,572.494690 208.553040,575.313232 
	C211.195648,582.614014 214.158722,589.798767 217.087509,597.268677 
	C219.219391,595.258850 219.463440,592.649841 220.985306,590.354980 
	C221.684174,589.911865 222.097061,590.079407 222.257141,590.842407 
	C220.300446,595.342896 218.502045,599.506531 216.257385,604.703369 
	C212.135269,594.021484 208.400604,584.343628 204.462402,574.383484 
	C204.016632,574.210327 203.774384,574.319458 203.211533,574.191895 
z"/>
<path fill="#0C0C0C" opacity="1.000000" stroke="none" 
	d="
M381.196899,578.668030 
	C379.976318,581.146179 378.612976,579.981689 377.463867,579.198608 
	C374.514954,577.188904 372.698547,578.945496 372.475433,581.423767 
	C372.077057,585.849548 371.199310,590.461914 373.760101,595.173706 
	C371.267914,594.592102 369.144806,594.096619 366.909973,593.575073 
	C370.333130,588.274475 369.389038,578.757446 365.136230,575.207397 
	C367.476959,574.388000 369.802277,573.740723 371.778931,571.050842 
	C371.948547,573.776245 372.049469,575.397400 372.165161,577.256409 
	C374.962769,576.951538 377.572083,572.991028 380.734314,576.951538 
	C381.334991,577.543213 381.485474,577.939270 381.196899,578.668030 
z"/>
<path fill="#1E1E1E" opacity="1.000000" stroke="none" 
	d="
M322.370850,561.041809 
	C324.804565,559.812378 326.715607,557.943115 328.704407,555.298035 
	C326.420105,562.648071 333.426422,561.392700 336.317108,563.717224 
	C335.762939,564.400574 335.546814,564.838867 335.406036,564.815979 
	C328.912903,563.756104 328.913635,563.751465 328.913452,570.476257 
	C328.913422,571.304749 328.913269,572.133179 328.913513,572.961670 
	C328.915771,580.973511 328.915802,580.973511 336.038239,582.263062 
	C330.524475,584.571411 325.946991,582.358887 325.324341,576.755005 
	C324.905762,572.987305 325.006409,569.142029 325.140350,565.340820 
	C325.214050,563.248535 324.767670,561.844177 322.370850,561.041809 
z"/>
<path fill="#0E0E0E" opacity="1.000000" stroke="none" 
	d="
M224.901886,605.992493 
	C227.076233,604.885559 226.803513,603.143982 226.801620,601.494446 
	C226.796463,597.002441 226.807983,592.510437 226.878662,587.561035 
	C226.421478,585.943054 226.263794,584.725464 226.184082,583.456665 
	C226.129669,582.590393 225.457764,583.605774 224.809708,583.115234 
	C226.721863,577.458801 226.721863,577.458801 234.927155,580.881409 
	C230.329193,580.130127 230.057419,582.573669 230.155060,585.695007 
	C230.326294,591.168884 230.288574,596.653870 230.164719,602.130310 
	C230.106491,604.704651 230.398819,606.977966 232.581589,609.012390 
	C230.303925,608.352600 228.026276,607.692810 225.394653,606.912964 
	C224.926132,606.609802 224.811554,606.426697 224.901886,605.992493 
z"/>
<path fill="#262626" opacity="1.000000" stroke="none" 
	d="
M225.776947,531.520874 
	C234.832962,528.864502 239.511902,532.254272 239.649216,541.225098 
	C239.694870,544.208069 239.281906,547.253052 239.751205,550.161194 
	C240.401733,554.192444 239.142609,554.897156 235.690521,553.365601 
	C234.813934,552.976685 233.828171,552.833801 232.575897,552.230530 
	C235.509033,552.022461 236.374344,550.595581 236.122025,548.003723 
	C235.866257,545.376282 236.151489,542.701233 236.042831,540.053467 
	C235.809875,534.377563 232.834641,532.082947 226.396042,532.854187 
	C225.684433,532.555908 225.560791,532.183655 225.776947,531.520874 
z"/>
<path fill="#1E1E1E" opacity="1.000000" stroke="none" 
	d="
M381.248840,578.558472 
	C380.942627,578.543701 380.916565,578.166870 380.932007,577.508667 
	C384.717896,577.073669 387.852783,579.183899 391.859283,580.182861 
	C388.365295,580.288940 388.286011,581.912720 389.140625,584.274109 
	C390.486786,587.993896 391.627533,591.787781 392.861115,595.548462 
	C393.149292,596.427063 393.192688,597.720764 394.879089,596.366943 
	C395.236450,595.898804 395.403931,595.773071 395.824493,595.833374 
	C394.962616,598.870300 393.847656,601.721130 392.708984,604.632568 
	C390.093140,596.847412 387.554230,589.334167 385.050690,581.809082 
	C384.451508,580.008057 383.772003,578.360168 381.248840,578.558472 
z"/>
<path fill="#1A1A1A" opacity="1.000000" stroke="none" 
	d="
M422.787720,666.809814 
	C422.485687,664.279236 422.228912,662.144470 422.118256,660.002136 
	C422.024139,658.180786 422.825806,655.839417 421.966553,654.617249 
	C418.976440,650.364136 422.938263,648.877502 425.295410,645.563843 
	C423.596161,651.628235 428.312378,651.641602 431.133087,653.042847 
	C429.629974,655.762451 425.581116,650.391174 425.185730,655.747070 
	C424.404999,666.323181 425.141968,668.261780 432.617249,669.708069 
	C428.042358,670.522095 425.039276,670.470032 422.787720,666.809814 
z"/>
<path fill="#1A1A1A" opacity="1.000000" stroke="none" 
	d="
M259.998444,554.221191 
	C258.969269,556.609558 258.449249,558.923340 256.609222,560.721802 
	C251.832977,552.548340 251.156219,542.557495 244.000641,534.765442 
	C244.396301,535.680969 244.480865,535.942993 244.510941,535.936890 
	C248.497192,535.126221 251.669113,537.812195 255.784866,538.549194 
	C251.734497,538.473389 251.201859,539.935852 252.752228,543.058411 
	C254.213486,546.001526 255.506470,549.128906 256.203339,552.321472 
	C256.849121,555.279907 258.465607,554.038696 259.998444,554.221191 
z"/>
<path fill="#0E0E0E" opacity="1.000000" stroke="none" 
	d="
M275.239075,552.751892 
	C275.971344,562.585876 279.035767,565.403687 290.279572,566.415894 
	C286.511871,569.076355 283.095093,568.808472 279.721832,567.232483 
	C274.976532,565.015442 272.438171,561.060181 271.875977,555.932861 
	C271.202789,549.793701 272.641541,547.270813 277.582184,546.036621 
	C278.096130,546.248474 278.234436,546.405945 278.357544,546.877136 
	C277.925049,548.351196 277.276398,549.421875 276.903442,550.937134 
	C276.526825,551.834839 276.057281,552.247620 275.239075,552.751892 
z"/>
<path fill="#1E1E1C" opacity="1.000000" stroke="none" 
	d="
M296.841858,669.775330 
	C301.037292,666.886536 304.363922,668.168579 307.277100,671.431641 
	C307.988342,672.228333 308.312836,673.577820 310.196411,672.832764 
	C311.093231,672.513123 311.565948,672.600769 311.973022,673.453491 
	C310.524353,674.196594 308.837616,674.409851 308.947876,676.424011 
	C309.184723,680.751099 307.990875,685.201538 310.151764,689.712585 
	C307.578400,688.878906 305.236847,688.120300 302.649597,687.282104 
	C305.717804,685.484070 306.968201,679.247742 305.368713,674.571838 
	C304.097107,670.854431 301.528229,669.371338 297.290314,670.636353 
	C296.857025,670.516907 296.774994,670.301819 296.841858,669.775330 
z"/>
<path fill="#171717" opacity="1.000000" stroke="none" 
	d="
M291.158813,616.357178 
	C291.481537,614.077942 291.682800,611.941406 290.215454,610.411987 
	C288.139038,608.247864 285.828125,607.834229 284.356720,611.079651 
	C283.720703,612.482605 283.088745,613.735779 281.631073,612.630615 
	C280.111603,611.478638 281.609314,610.138123 282.376434,609.336487 
	C284.026031,607.612854 286.056732,606.631348 288.606628,607.502441 
	C291.410339,608.460388 293.901245,609.759521 294.105804,613.105896 
	C294.297333,616.238953 294.160461,619.390869 294.247040,622.532288 
	C294.278229,623.663391 294.627136,624.784668 294.672363,625.916809 
	C294.725433,627.245422 298.085236,626.592224 296.445190,628.436829 
	C295.032715,630.025452 293.257690,628.675293 292.280029,627.357849 
	C290.439056,624.876953 287.979584,626.542114 285.448059,625.980286 
	C284.927216,625.393311 285.052185,624.974609 285.668182,624.414307 
	C288.383362,623.637268 289.895721,622.277527 289.932373,619.289185 
	C290.192902,618.126892 290.482300,617.326721 291.158813,616.357178 
z"/>
<path fill="#0B0B0B" opacity="1.000000" stroke="none" 
	d="
M225.568085,531.296509 
	C225.958237,531.635132 225.949753,531.990051 225.949921,532.611511 
	C222.966446,536.937195 223.495682,546.067505 226.970459,550.334412 
	C226.881577,550.452759 226.754272,550.687622 226.709290,550.672729 
	C223.647934,549.663940 220.593246,548.635010 217.441238,547.575256 
	C218.439026,546.239441 221.115997,548.088867 220.872269,545.770508 
	C220.331436,540.626770 223.236832,534.818787 217.896820,530.268555 
	C220.312973,530.045349 221.998764,528.792847 223.377304,527.207092 
	C225.212051,528.212891 222.981445,530.653931 225.568085,531.296509 
z"/>
<path fill="#1A1A1A" opacity="1.000000" stroke="none" 
	d="
M321.432953,621.642822 
	C323.705017,622.421082 325.608063,618.260071 328.732147,620.452454 
	C327.915253,622.061279 320.811188,621.981750 327.611237,626.362183 
	C322.759399,625.935364 323.526428,628.615540 324.222809,631.048401 
	C325.770416,636.455139 330.142334,638.700256 337.163452,637.559509 
	C334.874023,640.775208 331.857208,640.596069 329.045837,639.808777 
	C324.469940,638.527405 321.998840,635.039795 320.979675,630.552979 
	C320.301514,627.567444 320.862946,624.629761 321.432953,621.642822 
z"/>
<path fill="#1A1A1A" opacity="1.000000" stroke="none" 
	d="
M260.764648,668.447754 
	C259.961670,664.449402 262.781982,660.098633 258.109131,657.186218 
	C260.228058,656.259216 261.877411,655.022400 263.490540,652.929871 
	C262.399261,658.619995 267.468536,658.162781 270.563385,659.816467 
	C268.468750,661.634277 267.248871,659.940125 265.889099,659.968262 
	C264.791504,659.991089 263.794067,659.940857 263.939270,661.364258 
	C264.429840,666.173340 262.330780,671.330139 266.130127,676.021667 
	C260.659637,676.034180 260.915344,672.310120 260.764648,668.447754 
z"/>
<path fill="#1E1E1E" opacity="1.000000" stroke="none" 
	d="
M382.134460,643.725098 
	C379.905304,642.574219 379.001251,642.781189 379.188019,645.502075 
	C379.627777,651.908020 384.609070,655.610962 392.561707,654.824219 
	C389.821106,657.947571 386.794525,657.540527 383.862366,656.558777 
	C378.420349,654.736877 374.730103,647.485413 376.397919,641.984009 
	C377.651276,637.849670 380.388184,636.063904 384.952393,637.695984 
	C383.355042,639.403198 381.980682,640.993530 382.134460,643.725098 
z"/>
<path fill="#1E1E1E" opacity="1.000000" stroke="none" 
	d="
M356.873077,631.612915 
	C357.091736,631.393738 357.237335,631.577393 357.367218,631.566895 
	C369.049286,630.620117 370.882446,632.413025 370.938263,644.626465 
	C370.949280,647.038147 370.335602,649.515381 372.195862,652.329224 
	C369.353271,651.442017 367.345215,650.815247 365.114899,650.119141 
	C367.786713,648.327637 368.900085,639.892029 367.043854,636.223145 
	C365.209656,632.597839 362.212830,632.048035 358.338562,633.817200 
	C357.169250,633.599243 356.876282,632.822693 356.873077,631.612915 
z"/>
<path fill="#1A1A1A" opacity="1.000000" stroke="none" 
	d="
M261.886841,602.302673 
	C263.114075,601.904541 264.240662,601.838379 265.351318,601.668152 
	C271.413147,600.739197 274.834869,603.538757 275.216400,609.739075 
	C275.477936,613.988770 274.569885,618.316101 276.223572,622.767334 
	C273.928833,622.002075 271.866394,621.314331 269.707794,620.594482 
	C271.847778,619.357544 273.284668,611.183899 271.841675,607.351624 
	C270.459534,603.680847 267.618286,602.454224 263.382324,603.727539 
	C262.295319,603.658813 261.928345,603.224243 261.886841,602.302673 
z"/>
<path fill="#2C2C2C" opacity="1.000000" stroke="none" 
	d="
M312.351196,673.932556 
	C311.684479,673.583008 311.393768,673.312073 310.827942,672.915283 
	C316.055878,671.146912 320.374359,673.344299 321.165375,678.750977 
	C321.831879,683.306335 321.722809,687.975098 321.966736,692.784973 
	C319.804810,693.323181 318.229797,691.739380 316.200958,691.729858 
	C320.831390,686.787292 318.591949,676.060181 312.351196,673.932556 
z"/>
<path fill="#1E1E1E" opacity="1.000000" stroke="none" 
	d="
M277.060059,667.742432 
	C274.721771,667.653564 274.793152,668.919739 274.895203,670.396301 
	C275.310730,676.407227 280.273468,679.818054 287.469299,678.975342 
	C285.162079,681.643005 283.184174,682.279541 279.620209,680.960449 
	C274.987152,679.245667 272.438721,675.666321 271.861694,670.845215 
	C271.388092,666.888245 271.633331,663.059387 276.640808,661.298950 
	C277.169281,661.405823 277.312958,661.584229 277.531097,662.094238 
	C277.166199,664.125610 276.573914,665.817261 277.060059,667.742432 
z"/>
<path fill="#1D1D1B" opacity="1.000000" stroke="none" 
	d="
M343.682434,565.799866 
	C345.686615,565.370239 347.238770,565.521973 349.813354,566.873535 
	C343.444458,566.512512 341.830170,569.816345 341.675354,574.370911 
	C341.536438,578.459412 342.349976,582.265442 344.809631,585.753967 
	C340.769073,583.806091 338.364380,580.544922 337.861023,576.017151 
	C337.357178,571.485107 337.762421,567.237183 343.682434,565.799866 
z"/>
<path fill="#0E0E0E" opacity="1.000000" stroke="none" 
	d="
M353.722839,568.849304 
	C356.527252,569.945801 357.927032,572.013489 359.085907,574.210144 
	C361.008270,577.853821 362.137878,581.696411 359.943237,585.601685 
	C357.653320,589.676453 353.723114,589.442871 349.457031,588.993164 
	C348.939148,588.821777 348.780579,588.680786 348.818542,588.289551 
	C355.626953,587.701416 358.094513,584.221375 356.830902,576.885071 
	C356.404205,574.407715 355.381866,572.151001 353.562744,569.894653 
	C353.342499,569.344727 353.337799,569.084412 353.722839,568.849304 
z"/>
<path fill="#0C0C0C" opacity="1.000000" stroke="none" 
	d="
M356.896179,630.935791 
	C357.276886,632.021057 357.600281,632.741455 357.972839,633.757080 
	C358.222778,638.606323 357.526245,643.199951 358.661743,648.015625 
	C355.737579,647.263672 352.428009,647.439819 354.836609,642.640015 
	C355.698120,640.923218 355.013641,638.410522 354.967865,636.262512 
	C354.847717,630.623169 352.822876,628.851379 346.518127,629.245056 
	C345.995148,629.178833 345.870758,629.025757 345.881470,628.609375 
	C350.318604,625.708801 353.831360,626.911011 356.896179,630.935791 
z"/>
<path fill="#1E1E1E" opacity="1.000000" stroke="none" 
	d="
M231.249374,662.807373 
	C230.596313,664.464355 230.084366,665.806519 229.414413,667.562988 
	C226.778137,659.801331 224.306046,652.523010 221.778061,645.080200 
	C223.803101,644.003662 225.929367,645.791504 227.679947,646.084717 
	C224.410355,651.413513 229.263428,655.674561 229.837494,660.777466 
	C230.636536,661.363464 231.123123,661.809509 231.249374,662.807373 
z"/>
<path fill="#1D1D1B" opacity="1.000000" stroke="none" 
	d="
M244.222626,653.585754 
	C243.974045,657.261902 246.735260,658.381775 248.719833,659.972961 
	C250.680664,661.544861 252.682953,663.014648 253.539368,665.498108 
	C254.710571,668.894470 253.329239,670.599792 249.075928,670.850586 
	C252.478592,668.687195 251.661224,666.318787 249.412003,664.165710 
	C247.625458,662.455566 245.445724,661.159485 243.631500,659.473938 
	C241.856186,657.824707 240.736237,655.705627 241.757492,653.229431 
	C242.353516,651.784302 243.408234,651.003601 244.222626,653.585754 
z"/>
<path fill="#0E0E0E" opacity="1.000000" stroke="none" 
	d="
M414.191345,665.027466 
	C412.192719,664.642822 410.456818,664.206543 408.747925,663.777039 
	C413.109344,660.012634 410.763000,655.167419 410.682526,650.988342 
	C410.613983,647.431274 407.396118,645.947205 403.409210,646.136841 
	C402.906860,645.939148 402.785645,645.777283 402.836121,645.365479 
	C410.174011,643.576965 413.796570,646.305969 414.022980,653.433533 
	C414.132416,656.878845 414.208832,660.325317 414.529449,664.153320 
	C414.657135,664.682068 414.555573,664.828857 414.191345,665.027466 
z"/>
<path fill="#1A1A1A" opacity="1.000000" stroke="none" 
	d="
M402.600861,645.105103 
	C403.007874,645.115479 403.023376,645.608093 403.025757,645.854492 
	C398.475311,650.564209 401.812836,655.803711 401.129089,661.042664 
	C399.328918,661.704651 397.699524,659.523193 394.518982,660.203796 
	C399.090759,657.374329 398.963898,648.366150 395.391541,644.384888 
	C397.792664,643.535950 400.365295,640.559937 402.600861,645.105103 
z"/>
<path fill="#171717" opacity="1.000000" stroke="none" 
	d="
M345.661255,628.168945 
	C346.016571,628.346191 346.100494,628.835632 346.109985,629.083740 
	C344.043823,632.347412 345.191833,635.745667 345.105652,638.955078 
	C344.954559,644.580444 345.109314,644.584595 340.266876,642.156494 
	C343.942200,638.369141 342.912231,633.081787 341.650146,629.614380 
	C340.068512,625.269165 342.172272,625.176147 344.775391,624.117004 
	C344.956177,625.437256 345.131073,626.714539 345.661255,628.168945 
z"/>
<path fill="#171717" opacity="1.000000" stroke="none" 
	d="
M305.153778,627.669678 
	C303.095337,629.614929 305.150848,630.227478 305.972778,630.660583 
	C308.738251,632.117615 311.662811,633.268555 314.491455,634.610535 
	C319.448792,636.962402 320.748810,639.957703 318.439056,644.468750 
	C317.938934,644.575867 317.738586,644.436829 317.333466,643.996460 
	C315.461487,637.886475 310.168732,637.336426 305.289124,635.538635 
	C304.676178,634.927979 304.537537,634.467712 304.701111,633.624756 
	C303.960144,632.388550 302.925018,631.586975 302.183807,630.570923 
	C300.315826,628.010498 301.098755,626.788513 304.604187,626.941772 
	C305.107117,627.084900 305.226990,627.254822 305.153778,627.669678 
z"/>
<path fill="#171717" opacity="1.000000" stroke="none" 
	d="
M296.597168,669.290955 
	C296.952759,669.744141 296.935211,670.025696 296.938568,670.520264 
	C294.896820,675.290466 295.938995,679.914795 296.517731,684.918091 
	C294.463043,685.514587 292.715912,683.612976 290.295013,683.958496 
	C293.810577,680.982666 293.988342,672.088135 291.002625,667.453003 
	C293.135345,666.761292 296.149567,663.316040 296.597168,669.290955 
z"/>
<path fill="#171717" opacity="1.000000" stroke="none" 
	d="
M262.018005,601.614075 
	C262.235809,602.469299 262.476746,602.919861 262.829803,603.601440 
	C261.816437,607.351562 261.686310,613.653076 262.688293,617.826721 
	C260.434937,618.698853 258.691376,616.216431 256.497467,617.027222 
	C260.018036,614.691284 260.268433,605.676453 256.948914,601.460999 
	C261.496918,599.242676 261.496918,599.242676 262.018005,601.614075 
z"/>
<path fill="#060404" opacity="1.000000" stroke="none" 
	d="
M245.862457,594.959351 
	C249.780701,595.399658 250.796295,597.907837 251.293137,601.444214 
	C251.889084,605.686096 248.741440,610.613708 253.597885,614.244751 
	C254.477676,614.902527 252.907318,615.877197 251.954865,615.696045 
	C250.223373,615.366577 249.042084,614.200439 248.197723,612.260620 
	C247.842133,611.809570 247.673737,611.642212 247.320801,611.170471 
	C246.643143,609.507568 246.740433,608.110107 246.909988,606.378662 
	C247.145523,605.189697 247.424713,604.368591 248.007477,603.325073 
	C248.833115,600.532349 248.485092,598.270569 246.352173,596.093384 
	C245.917557,595.660278 245.798416,595.459229 245.862457,594.959351 
z"/>
<path fill="#1E1E1C" opacity="1.000000" stroke="none" 
	d="
M202.673676,574.380737 
	C203.197586,573.957214 203.503021,573.977722 204.033020,574.059021 
	C203.794098,582.900269 203.463150,591.695435 204.490540,600.542847 
	C202.724884,600.003662 200.485275,599.319763 198.245667,598.635803 
	C201.943100,598.584412 202.615112,596.528870 202.464447,593.161011 
	C202.191284,587.054871 202.430893,580.925720 202.673676,574.380737 
z"/>
<path fill="#1E1E1E" opacity="1.000000" stroke="none" 
	d="
M320.924316,621.120544 
	C320.938263,621.497253 320.974335,621.397949 321.001556,621.350830 
	C319.535309,622.803589 318.457764,620.280823 316.852112,621.084167 
	C316.978699,624.210571 316.910889,627.533569 312.382172,628.652954 
	C311.869904,628.423645 311.756866,628.146667 311.835632,627.464172 
	C315.211243,623.443481 313.186005,619.791443 311.999634,615.961731 
	C314.587738,618.544800 318.570496,618.071106 320.924316,621.120544 
z"/>
<path fill="#3D3D3D" opacity="1.000000" stroke="none" 
	d="
M247.720367,603.041382 
	C248.941757,603.276733 248.915909,603.940552 248.711182,604.798462 
	C247.783890,605.323303 247.157852,605.883301 246.436340,606.293823 
	C245.466766,606.845581 244.010086,607.209900 244.341614,608.663574 
	C244.648087,610.007324 246.303345,609.635376 247.493011,610.473145 
	C247.824921,610.887268 247.891754,611.099426 247.984558,611.644287 
	C244.480118,613.101501 239.934479,614.548035 238.644638,610.111633 
	C237.186325,605.095825 242.290802,604.457092 245.879272,603.397827 
	C246.354630,603.257507 246.845581,603.170044 247.720367,603.041382 
z"/>
<path fill="#E4E4E4" opacity="1.000000" stroke="none" 
	d="
M276.299866,551.187378 
	C275.565735,549.363892 276.220520,548.233215 277.666992,547.113281 
	C279.650391,545.926758 281.358551,545.677002 283.419922,547.008972 
	C283.956421,547.367371 284.185455,547.488098 284.744507,547.813477 
	C285.074554,548.018188 284.979065,548.022156 284.972961,547.974792 
	C285.187927,548.186035 285.420746,548.433594 285.867310,548.825684 
	C286.069397,548.981201 286.004547,548.994507 286.008453,548.961609 
	C287.184967,551.330139 287.509827,553.329224 283.436951,553.223694 
	C283.005402,553.001404 282.642548,553.068420 282.459473,553.045410 
	C280.262482,552.888855 278.400360,552.196289 276.299866,551.187378 
z"/>
<path fill="#1A1A1A" opacity="1.000000" stroke="none" 
	d="
M307.164978,614.690918 
	C303.194672,618.130493 304.735687,621.655518 306.465088,625.516479 
	C306.434448,626.007935 306.164948,626.159912 305.461365,626.147766 
	C299.828369,620.101074 300.300079,615.679321 306.710815,613.774414 
	C307.190918,613.957886 307.285889,614.179443 307.164978,614.690918 
z"/>
<path fill="#313131" opacity="1.000000" stroke="none" 
	d="
M286.419495,624.485229 
	C285.992737,624.993652 285.661255,625.186157 285.183411,625.627197 
	C283.014587,625.716675 281.489014,624.741394 281.304504,622.684021 
	C281.105347,620.463379 282.569946,618.951904 284.477051,618.159973 
	C286.420837,617.352661 288.513611,616.904175 290.918091,616.187439 
	C291.974854,616.482117 291.994873,617.038391 291.470276,617.813965 
	C289.251495,619.686829 286.028534,620.506287 286.419495,624.485229 
z"/>
<path fill="#313131" opacity="1.000000" stroke="none" 
	d="
M396.339417,595.791931 
	C395.909515,596.015991 395.741364,596.012573 395.321106,596.016846 
	C396.044525,593.402283 396.855255,590.702454 398.040924,588.178894 
	C399.282898,585.535522 399.431427,583.497253 395.975952,582.523987 
	C397.505402,581.351257 398.707001,582.051147 399.932861,582.433716 
	C401.149689,582.813660 402.383392,583.139465 404.179626,583.651367 
	C398.908936,586.291016 398.929718,591.615295 396.339417,595.791931 
z"/>
<path fill="#E4E4E4" opacity="1.000000" stroke="none" 
	d="
M277.185608,667.954956 
	C277.534149,666.301086 273.369476,665.087769 276.697205,663.126953 
	C278.633545,661.575073 280.335663,662.048645 282.368774,663.039795 
	C282.921234,663.363892 283.150116,663.479614 283.716980,663.779175 
	C284.054901,663.963013 284.001434,663.999634 284.019318,663.972595 
	C285.345032,665.881958 285.306396,667.558105 282.686584,668.885193 
	C280.713501,668.638916 279.150055,668.321899 277.185608,667.954956 
z"/>
<path fill="#E4E4E4" opacity="1.000000" stroke="none" 
	d="
M382.223145,643.901611 
	C379.979858,640.846985 379.068909,638.165527 384.778076,638.110046 
	C385.639923,638.044434 386.116577,638.054504 386.946136,638.126892 
	C387.415924,638.629639 387.520935,639.072937 387.838196,639.778015 
	C388.060822,640.037292 387.967590,640.026062 387.967682,639.979126 
	C388.179840,640.188721 388.407928,640.430054 388.852325,640.804565 
	C389.052612,640.952820 388.997040,640.994934 389.021606,640.969238 
	C390.346588,645.561646 387.831757,644.825867 384.774231,643.480103 
	C383.827209,643.410278 383.191742,643.625977 382.223145,643.901611 
z"/>
<path fill="#222222" opacity="1.000000" stroke="none" 
	d="
M207.845306,657.635620 
	C208.018204,657.927185 208.048615,658.350037 208.033295,658.561462 
	C205.357162,658.327332 203.126541,656.963074 200.910309,655.525696 
	C198.523163,653.977356 198.342117,652.113831 199.941345,649.273438 
	C202.325531,652.555115 203.967224,656.026245 207.845306,657.635620 
z"/>
<path fill="#2C2C2C" opacity="1.000000" stroke="none" 
	d="
M206.301758,629.146301 
	C206.240204,628.859863 206.497375,628.694397 206.858688,628.316711 
	C214.707993,629.859985 216.329376,631.675415 214.604141,637.188049 
	C213.181488,633.049683 210.975555,630.012146 206.301758,629.146301 
z"/>
<path fill="#313131" opacity="1.000000" stroke="none" 
	d="
M304.547363,633.503906 
	C304.964325,633.616821 305.067139,633.945801 305.097778,634.441101 
	C304.850311,636.760132 304.362610,638.899292 304.678894,641.408813 
	C304.504547,641.939514 304.394684,642.137878 303.964661,642.450806 
	C301.667847,641.104309 299.395752,639.739563 299.804443,636.807251 
	C300.144989,634.364136 302.260986,634.047119 304.547363,633.503906 
z"/>
<path fill="#2C2C2C" opacity="1.000000" stroke="none" 
	d="
M384.270264,611.744751 
	C382.773865,609.646973 382.985382,607.947876 385.471588,608.723755 
	C387.837463,609.462036 389.233307,608.747009 390.794159,607.224243 
	C390.286194,611.082581 388.889465,613.533813 384.270264,611.744751 
z"/>
<path fill="#222222" opacity="1.000000" stroke="none" 
	d="
M283.108612,553.340332 
	C285.527374,553.390015 287.733032,553.488403 285.947327,549.397095 
	C289.327515,549.438782 289.693695,552.180542 290.111816,554.669373 
	C290.360870,556.152039 289.157928,556.012085 288.161407,555.627808 
	C286.507080,554.989929 284.861237,554.329956 283.108612,553.340332 
z"/>
<path fill="#1E1E1C" opacity="1.000000" stroke="none" 
	d="
M260.363739,550.147461 
	C261.508453,547.067749 264.781372,544.487000 261.556274,541.195374 
	C263.682068,540.272827 265.715027,541.422913 268.280792,542.545837 
	C264.990845,542.998291 264.537445,545.549194 263.316681,547.541809 
	C262.592773,548.723450 263.126648,551.639099 260.363739,550.147461 
z"/>
<path fill="#2C2C2C" opacity="1.000000" stroke="none" 
	d="
M336.430786,627.242249 
	C336.963501,628.925354 336.394287,629.457397 335.073334,629.116150 
	C333.347778,628.670593 331.649506,628.119324 329.488770,627.274902 
	C333.447754,627.385071 334.549316,626.102844 331.623749,622.754761 
	C335.003876,622.871643 335.472626,625.094421 336.430786,627.242249 
z"/>
<path fill="#2C2C2C" opacity="1.000000" stroke="none" 
	d="
M226.853073,673.039795 
	C225.507797,674.463562 224.197388,674.898743 222.659546,674.109802 
	C221.703430,673.619385 221.035248,672.813354 221.415237,671.751160 
	C221.736862,670.852173 222.785126,670.667786 223.486923,671.150269 
	C225.828201,672.760010 226.507980,670.493286 227.731369,669.300720 
	C228.850601,670.855957 227.361526,671.694519 226.853073,673.039795 
z"/>
<path fill="#3D3D3D" opacity="1.000000" stroke="none" 
	d="
M282.562866,669.121094 
	C284.675415,667.983337 284.558716,666.383728 283.710083,664.232788 
	C287.036713,664.974854 286.974884,667.809326 288.349152,670.643188 
	C285.992950,670.407104 284.347382,670.249207 282.562866,669.121094 
z"/>
<path fill="#313131" opacity="1.000000" stroke="none" 
	d="
M245.793961,594.387268 
	C246.069397,594.860779 246.093140,595.061096 246.076797,595.561340 
	C243.699310,595.483215 241.774918,595.784241 241.130005,598.561951 
	C240.864548,599.705261 239.944183,600.244324 238.882629,599.712891 
	C237.368683,598.955017 238.041275,597.856384 238.712540,596.853516 
	C240.365158,594.384521 242.655502,593.505920 245.793961,594.387268 
z"/>
<path fill="#5C5C5C" opacity="1.000000" stroke="none" 
	d="
M317.413300,642.687683 
	C317.801697,643.085022 317.854309,643.414001 318.023071,644.228882 
	C313.025024,647.893127 308.587463,645.237061 303.867950,642.825439 
	C303.780090,642.411804 303.915710,642.258179 304.287598,641.907837 
	C308.755249,641.366272 312.734741,644.503784 317.413300,642.687683 
z"/>
<path fill="#2C2C2C" opacity="1.000000" stroke="none" 
	d="
M233.743622,655.158447 
	C234.007767,652.642273 236.736160,650.082153 232.001648,648.410095 
	C234.836639,647.408569 236.596771,649.161743 239.662628,649.237366 
	C236.820511,650.520691 235.767731,652.270691 234.950058,654.609131 
	C234.583633,655.075439 234.345871,655.213074 233.743622,655.158447 
z"/>
<path fill="#313131" opacity="1.000000" stroke="none" 
	d="
M224.263214,583.144836 
	C228.524734,581.611633 226.857040,584.730591 227.044113,586.716858 
	C226.696381,586.354126 226.651703,585.178650 226.158264,584.942993 
	C225.106400,584.440735 225.027176,585.705505 224.707703,586.333374 
	C223.973541,587.776611 223.326385,589.263977 222.371368,590.956299 
	C221.926682,590.892761 221.754501,590.606384 221.371506,590.183533 
	C222.117722,587.820435 223.074783,585.593750 224.263214,583.144836 
z"/>
<path fill="#313131" opacity="1.000000" stroke="none" 
	d="
M384.442932,643.551392 
	C386.108246,643.282654 388.797852,646.283691 388.899811,641.300110 
	C391.755737,641.249268 392.427826,643.681519 391.887268,645.297302 
	C391.109009,647.623352 389.190308,645.577454 387.853455,645.208618 
	C386.696136,644.889282 385.137695,645.425720 384.442932,643.551392 
z"/>
<path fill="#262626" opacity="1.000000" stroke="none" 
	d="
M241.525574,665.285645 
	C241.522583,664.301697 241.259247,662.732239 242.453445,664.030640 
	C243.861893,665.562012 244.716415,667.602844 246.111221,669.921692 
	C242.983276,669.803406 241.618576,668.477478 241.525574,665.285645 
z"/>
<path fill="#2C2C2C" opacity="1.000000" stroke="none" 
	d="
M249.052155,653.823853 
	C248.350204,653.367493 247.727432,653.298279 247.493149,652.960022 
	C246.911209,652.119629 247.614853,651.812073 248.259491,651.921936 
	C251.392319,652.456177 253.265152,654.062744 252.773453,657.771118 
	C250.690399,657.290649 250.758728,654.935669 249.052155,653.823853 
z"/>
<path fill="#5C5C5C" opacity="1.000000" stroke="none" 
	d="
M233.174561,655.214355 
	C233.619064,654.940186 233.859024,654.914185 234.460205,654.912964 
	C233.765747,657.522461 232.710068,660.107239 231.381317,662.907104 
	C230.736526,662.661438 230.364792,662.200745 229.964935,661.443970 
	C232.018692,659.824036 231.878464,657.314697 233.174561,655.214355 
z"/>
<path fill="#5C5C5C" opacity="1.000000" stroke="none" 
	d="
M305.021667,626.216675 
	C305.306763,625.962341 305.586212,625.941101 306.284790,625.887878 
	C308.134369,626.659180 309.553131,627.505249 311.668671,627.084351 
	C312.028931,627.332520 312.030396,627.606445 312.007385,628.290405 
	C309.889099,628.486084 307.795227,628.271606 305.331055,627.985840 
	C304.979828,627.748413 304.998932,627.582153 305.002655,627.165527 
	C304.987274,626.915039 305.016022,626.449707 305.021667,626.216675 
z"/>
<path fill="#313131" opacity="1.000000" stroke="none" 
	d="
M275.871521,551.142212 
	C277.995667,551.396423 279.939758,551.885132 282.080139,552.698120 
	C279.733063,555.383118 277.975494,550.955017 275.261993,552.580872 
	C275.209045,552.403748 275.450226,551.890259 275.871521,551.142212 
z"/>
<path fill="#5C5C5C" opacity="1.000000" stroke="none" 
	d="
M284.167450,547.484863 
	C282.364441,547.139648 280.639740,546.588440 278.364136,546.953308 
	C277.968445,546.946533 278.065216,546.517517 278.011536,546.304260 
	C279.785278,544.573914 281.668915,544.940491 283.798187,546.159424 
	C284.107941,546.636108 284.190399,546.876953 284.167450,547.484863 
z"/>
<path fill="#5C5C5C" opacity="1.000000" stroke="none" 
	d="
M283.176697,663.816895 
	C281.362946,663.124695 279.657928,662.614563 277.370422,662.943848 
	C276.993774,662.665405 277.011841,662.378174 277.027740,661.659119 
	C279.145966,660.365906 280.863037,661.565613 282.845612,662.613647 
	C283.148346,663.105652 283.270538,663.315002 283.176697,663.816895 
z"/>
<path fill="#F1F1F1" opacity="1.000000" stroke="none" 
	d="
M348.819214,587.787903 
	C349.015076,588.039185 348.996002,588.506348 349.046844,588.734497 
	C347.921478,588.957214 346.872467,588.618958 345.996765,587.778748 
	C346.767700,586.480774 347.699158,587.047180 348.819214,587.787903 
z"/>
<path fill="#313131" opacity="1.000000" stroke="none" 
	d="
M224.853180,605.562317 
	C225.211166,605.973999 225.213852,606.207764 225.077774,606.617798 
	C223.981796,606.869812 223.222275,606.455261 222.826279,605.443970 
	C223.417374,605.423706 224.008484,605.403442 224.853180,605.562317 
z"/>
<path fill="#EFEFEF" opacity="1.000000" stroke="none" 
	d="
M307.229675,614.963257 
	C306.993927,614.775940 307.038788,614.570862 307.089783,614.051147 
	C307.591766,613.207031 308.213409,612.995789 308.519409,613.774719 
	C308.804932,614.501465 308.151550,614.808289 307.229675,614.963257 
z"/>
<path fill="#5C5C5C" opacity="1.000000" stroke="none" 
	d="
M202.827011,570.338013 
	C202.928864,570.911499 202.833206,571.269775 202.554947,571.844604 
	C202.362656,571.402405 199.395828,570.351318 202.827011,570.338013 
z"/>
<path fill="#E4E4E4" opacity="1.000000" stroke="none" 
	d="
M330.361267,620.687500 
	C330.548370,620.829529 330.578461,621.081604 330.608551,621.333679 
	C330.473785,621.154968 330.339020,620.976196 330.361267,620.687500 
z"/>
<path fill="#0E0E0E" opacity="1.000000" stroke="none" 
	d="
M353.542664,569.426697 
	C352.950134,569.180237 352.553040,568.755432 352.155975,568.330688 
	C352.722931,568.326721 353.289856,568.322754 353.984680,568.596680 
	C353.987762,568.999207 353.862946,569.123840 353.542664,569.426697 
z"/>
<path fill="#313131" opacity="1.000000" stroke="none" 
	d="
M388.306396,639.821289 
	C387.343536,639.926514 386.967346,639.571411 387.236359,638.494019 
	C387.716705,638.661194 388.134338,639.133240 388.306396,639.821289 
z"/>
<path fill="#222222" opacity="1.000000" stroke="none" 
	d="
M286.247345,548.574341 
	C285.709259,548.852844 285.349121,548.724548 284.977905,548.261841 
	C285.536560,547.499939 286.021515,547.587158 286.247345,548.574341 
z"/>
<path fill="#3D3D3D" opacity="1.000000" stroke="none" 
	d="
M283.264832,664.301392 
	C282.960632,663.906616 282.960571,663.703857 282.993317,663.198669 
	C283.359497,663.060303 283.692871,663.224365 284.040588,663.675720 
	C283.892944,664.139832 283.730957,664.316589 283.264832,664.301392 
z"/>
<path fill="#F1F1F1" opacity="1.000000" stroke="none" 
	d="
M350.455933,567.444824 
	C350.517029,567.407715 350.394836,567.481934 350.455933,567.444824 
z"/>
<path fill="#0E0E0E" opacity="1.000000" stroke="none" 
	d="
M414.538574,664.652100 
	C414.895081,665.105835 415.402008,665.914612 414.014221,665.319458 
	C413.928650,665.079163 414.318512,664.768860 414.538574,664.652100 
z"/>
<path fill="#222222" opacity="1.000000" stroke="none" 
	d="
M284.302124,547.972778 
	C284.073486,547.608765 284.084900,547.365601 284.060913,546.758911 
	C284.485870,546.685730 284.946320,546.976196 285.240662,547.642456 
	C284.897095,548.043396 284.719666,548.068542 284.302124,547.972778 
z"/>
<path fill="#313131" opacity="1.000000" stroke="none" 
	d="
M389.223389,640.548767 
	C388.707581,640.833679 388.362549,640.714539 387.992645,640.263794 
	C388.521729,639.476257 388.996429,639.552307 389.223389,640.548767 
z"/>
<path fill="#9A6B66" opacity="1.000000" stroke="none" 
	d="
M403.690552,423.745605 
	C404.107208,425.494110 404.280060,426.986633 404.279938,428.479126 
	C404.277100,462.289215 404.262543,496.099335 404.230774,529.909424 
	C404.224762,536.309814 403.276489,536.985718 397.191803,535.162354 
	C339.124451,517.761230 281.062164,500.343170 222.972458,483.017029 
	C220.182861,482.184998 218.885208,481.141327 218.898926,477.960663 
	C219.041321,444.985748 219.025345,412.010162 219.084167,378.574219 
	C221.655899,376.001160 224.255920,377.551514 226.709869,378.175781 
	C264.168884,387.705200 301.634430,397.209229 339.103058,406.700378 
	C359.291077,411.814178 379.387817,417.286224 399.647034,422.119385 
	C400.939453,422.427734 402.269287,422.645599 403.690552,423.745605 
z"/>
<path fill="#C18983" opacity="1.000000" stroke="none" 
	d="
M379.076233,302.662079 
	C367.373566,321.918762 355.325989,340.860931 343.465027,359.919281 
	C341.309540,363.382721 338.772003,363.377441 335.395477,362.500671 
	C297.168945,352.574493 258.920410,342.733002 220.684647,332.842285 
	C203.014877,328.271484 185.358887,323.647369 167.699371,319.036926 
	C161.796326,317.495789 161.199600,315.809692 164.841339,310.807831 
	C179.725815,290.364258 194.727386,270.004578 209.427322,249.429306 
	C211.926331,245.931488 214.718842,246.566116 217.746109,247.143539 
	C239.263092,251.247772 260.765381,255.429092 282.266846,259.614410 
	C291.219666,261.357086 300.158875,263.169525 309.480469,265.071167 
	C314.392914,270.927673 318.465851,277.004456 322.957855,282.781281 
	C328.267822,289.610077 335.019348,294.117798 343.031250,297.010376 
	C351.725372,300.149261 360.595123,302.084930 369.924988,301.637878 
	C372.874054,301.496552 375.931244,301.084900 379.076233,302.662079 
z"/>
<path fill="#9B6C67" opacity="1.000000" stroke="none" 
	d="
M542.787476,366.673462 
	C546.435059,371.946198 549.722778,377.106750 553.099854,382.611206 
	C553.075989,407.757538 552.831787,432.560699 552.961975,457.361908 
	C552.987366,462.202240 551.372559,464.839172 547.177551,467.160095 
	C510.066101,487.691833 473.078583,508.447510 436.036987,529.105774 
	C429.120117,532.963379 427.056061,531.771667 427.030029,524.076843 
	C426.938293,496.938477 426.881134,469.799957 426.749634,442.661804 
	C426.718201,436.177612 426.449615,429.694580 426.337524,422.770294 
	C427.151489,420.219879 429.057434,419.473206 430.859741,418.627258 
	C463.222443,403.437256 495.505127,388.079010 527.777283,372.697845 
	C532.541931,370.426910 537.172974,367.713470 542.787476,366.673462 
z"/>
<path fill="#5E2F2B" opacity="1.000000" stroke="none" 
	d="
M404.033661,423.533020 
	C394.008789,423.181519 384.569092,419.805908 374.934998,417.384033 
	C323.226562,404.385406 271.567566,391.190186 219.503220,378.088287 
	C219.078583,372.783539 218.985748,367.452972 219.021118,362.123260 
	C219.059555,356.332947 219.781311,355.787292 225.344116,357.222076 
	C257.928925,365.626495 290.507233,374.056152 323.092743,382.457855 
	C329.670197,384.153748 336.293915,385.674835 342.849945,387.447876 
	C347.491333,388.703094 350.730255,387.425446 353.449066,383.343567 
	C368.013214,361.477539 382.740692,339.720276 397.414764,317.927490 
	C398.589844,316.182312 399.462860,313.522766 402.127625,314.346191 
	C404.712799,315.144989 404.937622,317.807465 404.938629,320.198059 
	C404.949219,344.688873 405.393951,369.192261 404.715149,393.664307 
	C404.443451,403.459778 404.370361,413.267120 404.033661,423.533020 
z"/>
<path fill="#5D2E2A" opacity="1.000000" stroke="none" 
	d="
M543.083618,366.432861 
	C513.589600,380.855286 484.032257,394.925934 454.473663,408.993896 
	C445.320770,413.350098 436.164368,417.698944 426.697266,422.190369 
	C426.266998,411.523407 426.084137,400.717438 426.045837,389.910950 
	C425.982758,372.107452 425.982910,354.303497 426.043335,336.500000 
	C426.050720,334.326935 424.938171,331.163269 427.880615,330.412567 
	C431.077484,329.597015 432.266632,332.743896 433.455170,335.042419 
	C440.785522,349.218719 448.062439,363.422760 455.330017,377.631409 
	C458.849518,384.512329 458.770233,384.413025 465.549896,381.255829 
	C488.136902,370.737305 510.762878,360.302307 533.386230,349.862000 
	C534.269714,349.454254 535.279480,349.320190 536.605591,349.041626 
	C536.980774,349.024658 536.995544,349.002502 536.988037,349.007568 
	C537.206726,349.238312 537.431396,349.465546 537.814697,349.872559 
	C538.530823,355.748169 540.834656,360.895477 543.083618,366.432861 
z"/>
<path fill="#6A4946" opacity="1.000000" stroke="none" 
	d="
M372.648010,188.864624 
	C385.173767,191.551514 392.569397,200.810867 392.056030,212.560120 
	C391.570374,223.674927 382.763245,232.482788 370.704285,233.836273 
	C365.874908,234.378326 361.497437,232.603165 357.325928,230.587448 
	C341.630554,223.003250 326.017578,215.248505 310.161743,207.278748 
	C326.770691,200.802505 343.579712,194.572525 360.421356,188.431961 
	C364.363373,186.994675 368.291992,188.630249 372.648010,188.864624 
z"/>
<path fill="#C08882" opacity="1.000000" stroke="none" 
	d="
M513.022827,334.548401 
	C499.441528,341.652008 485.861847,348.282684 472.411713,355.166504 
	C468.040497,357.403656 465.865906,356.154572 463.934601,351.948120 
	C455.757874,334.139069 447.361115,316.431030 438.967957,298.328217 
	C440.987213,296.524536 442.746552,297.925720 444.451508,298.775299 
	C466.058716,309.541840 487.667877,320.304718 509.240784,331.140015 
	C510.714478,331.880157 512.298401,332.530243 513.022827,334.548401 
z"/>
<path fill="#914943" opacity="1.000000" stroke="none" 
	d="
M513.309692,334.842621 
	C512.620300,334.584198 512.327026,334.130127 511.910858,333.923157 
	C487.825043,321.943787 463.729034,309.984863 439.262512,297.997192 
	C436.342773,294.188812 434.929230,289.876801 433.091187,285.374176 
	C434.945984,284.404083 436.602631,285.275665 438.230194,286.069916 
	C466.117096,299.678345 493.995941,313.303284 521.867554,326.943024 
	C522.598145,327.300568 523.227539,327.864929 524.086243,328.642334 
	C520.728455,330.888641 517.188538,332.825439 513.309692,334.842621 
z"/>
<path fill="#914A43" opacity="1.000000" stroke="none" 
	d="
M379.632965,302.782013 
	C364.055206,303.842316 349.059235,302.693146 335.345459,295.077209 
	C323.428650,288.459290 316.181122,277.579834 309.907959,265.547424 
	C310.649078,265.147888 311.441528,265.103607 312.629395,265.015015 
	C315.582855,265.967224 317.372620,267.902313 319.243225,269.819366 
	C336.746124,287.756836 357.964752,296.204956 383.525604,294.549347 
	C384.173645,297.958252 381.242371,299.893799 379.632965,302.782013 
z"/>
<path fill="#6A4946" opacity="1.000000" stroke="none" 
	d="
M296.708008,211.831726 
	C298.058777,220.601547 297.873993,229.614120 300.804443,238.574890 
	C287.132080,236.585373 273.317078,234.260590 259.510162,231.888779 
	C257.886749,231.609909 256.170685,231.242706 255.919495,229.105072 
	C255.653610,226.842224 257.016235,225.822952 258.899536,225.157928 
	C271.376434,220.752182 283.848846,216.333710 296.708008,211.831726 
z"/>
<path fill="#7B7B7B" opacity="1.000000" stroke="none" 
	d="
M325.455231,227.444305 
	C335.205353,232.224106 344.575256,236.938080 354.071350,241.382401 
	C374.563354,250.972977 396.942871,240.397552 402.344116,218.686005 
	C405.928864,204.276291 399.373932,188.873489 385.484619,181.465927 
	C371.711182,174.120178 357.459747,167.671768 343.439850,160.785294 
	C342.145508,160.149521 340.091736,159.854355 339.984344,158.285019 
	C339.853119,156.367096 342.069183,155.906464 343.418121,155.117630 
	C371.833466,138.500549 410.348419,145.423248 430.410889,171.276047 
	C440.394562,184.141129 446.482941,198.831253 446.085846,215.532227 
	C446.010651,218.695053 447.125641,220.202179 449.898438,221.549011 
	C488.492828,240.295670 527.058105,259.103271 565.528503,278.102478 
	C568.780029,279.708313 570.589844,278.739258 572.997498,276.965515 
	C600.502991,256.702087 633.704651,257.287201 659.979431,278.903900 
	C673.657959,290.157410 681.150879,305.137146 683.707703,322.603790 
	C683.866089,323.685883 684.396606,325.064026 683.226562,325.836700 
	C682.079346,326.594208 681.010010,325.612335 679.995544,325.117950 
	C666.687439,318.632507 653.367981,312.169922 640.090637,305.621948 
	C616.687744,294.080261 591.887634,307.317322 589.533875,333.282532 
	C588.419128,345.581055 594.173462,358.411499 609.132080,365.921844 
	C622.509460,372.638214 636.034546,379.059937 649.474426,385.652557 
	C650.742065,386.274384 652.834778,386.466614 652.779358,388.167419 
	C652.730042,389.679504 650.804810,390.224243 649.543457,390.948303 
	C620.635498,407.543671 581.120056,402.274689 558.567444,369.945679 
	C550.692932,358.657562 546.635071,346.251892 546.746704,332.538330 
	C546.779785,328.476471 545.665039,325.952148 541.676392,324.028961 
	C506.017151,306.835022 470.342255,289.662109 434.990631,271.850525 
	C427.261353,267.956177 422.215332,267.588135 414.299500,272.639099 
	C370.280518,300.726898 317.475769,273.368835 309.168976,225.223846 
	C308.893799,223.628937 309.134094,221.945084 309.134094,219.495529 
	C314.780487,222.234589 319.956360,224.745422 325.455231,227.444305 
z"/>
<path fill="#BF8781" opacity="1.000000" stroke="none" 
	d="
M513.864014,239.370300 
	C514.740784,237.148712 516.489624,236.233185 518.335022,235.393127 
	C528.924866,230.572510 539.559875,225.845032 550.053467,220.822403 
	C553.664856,219.093826 555.465576,219.820587 557.719666,223.150467 
	C565.553223,234.722824 573.819885,246.001999 582.067749,257.713135 
	C577.982422,260.600067 573.736877,263.143555 569.528320,265.746735 
	C568.230774,266.549347 567.035645,266.369873 565.777100,265.753540 
	C548.819946,257.449768 531.858704,249.154175 514.913391,240.826385 
	C514.516174,240.631165 514.290649,240.086609 513.864014,239.370300 
z"/>
<path fill="#6A4846" opacity="1.000000" stroke="none" 
	d="
M455.962189,202.417664 
	C465.713928,201.603683 475.216125,204.297760 484.912262,205.289764 
	C493.116364,206.129135 501.232758,207.800812 509.409637,208.950012 
	C511.400330,209.229782 513.112549,209.752625 513.691345,211.715530 
	C514.392334,214.092682 512.349792,214.831879 510.740784,215.646225 
	C503.632324,219.243881 496.505432,222.805038 489.191681,226.658081 
	C481.752258,225.986496 476.199982,221.016312 469.518433,218.709183 
	C467.813141,218.120346 466.321564,216.890549 464.606995,216.354614 
	C457.876953,214.250900 454.999603,209.824539 455.962189,202.417664 
z"/>
<path fill="#1D1D1B" opacity="1.000000" stroke="none" 
	d="
M537.884521,349.814148 
	C537.657104,349.929565 537.398071,349.731537 537.089111,349.234619 
	C537.251648,349.200958 537.522827,349.389282 537.884521,349.814148 
z"/>
<path fill="#EFEFEF" opacity="1.000000" stroke="none" 
	d="
M286.705872,624.831421 
	C283.994781,620.582581 284.729950,619.365234 290.881256,617.934570 
	C291.544434,621.263794 292.104431,624.755066 286.705872,624.831421 
z"/>
<path fill="#EFEFEF" opacity="1.000000" stroke="none" 
	d="
M317.791412,642.401245 
	C313.271332,646.859253 309.260956,643.944397 304.857574,641.815491 
	C303.114594,639.519165 301.184479,637.340271 304.690430,634.820007 
	C310.052338,635.783020 315.952026,635.455750 317.791412,642.401245 
z"/>
<path fill="#EFEFEF" opacity="1.000000" stroke="none" 
	d="
M247.896576,610.285095 
	C245.686752,610.943298 242.723785,612.918030 242.151154,609.376648 
	C241.551102,605.665710 244.794250,605.076355 248.125778,604.884949 
	C248.376862,606.621704 248.205978,608.258423 247.896576,610.285095 
z"/>
<path fill="#030202" opacity="1.000000" stroke="none" 
	d="
M298.863312,487.658752 
	C299.127289,490.946899 298.835083,492.438995 295.122711,491.303436 
	C285.192749,488.266052 285.135925,488.450043 285.136658,478.181671 
	C285.137177,471.359528 285.084503,464.536743 285.160004,457.715424 
	C285.211395,453.069672 285.829254,448.328552 290.834625,446.477661 
	C295.757751,444.657196 300.334503,446.445740 304.228333,449.728760 
	C305.608887,450.892761 306.745667,452.375305 307.859344,453.816284 
	C308.633606,454.818024 309.078186,455.341858 310.615906,454.701599 
	C319.865387,450.850616 329.161224,455.331848 331.976013,464.843475 
	C332.735046,467.408386 333.037445,470.034149 333.024353,472.724854 
	C332.975983,482.665771 333.005127,492.607086 333.005127,502.453064 
	C332.402771,502.574738 332.226410,502.666016 332.078461,502.632385 
	C319.353394,499.741486 319.353638,499.740784 319.353577,486.708405 
	C319.353546,481.383789 319.413116,476.058105 319.317993,470.735168 
	C319.287842,469.047394 320.038422,466.297363 317.651123,466.189331 
	C314.909424,466.065247 315.947876,468.919922 315.921783,470.486145 
	C315.794312,478.138184 315.762634,485.795410 315.910492,493.446686 
	C315.972015,496.631439 315.175415,497.524170 311.889893,496.564362 
	C302.388947,493.788879 302.353607,493.909851 302.353577,484.034027 
	C302.353546,478.210236 302.434998,472.384674 302.308594,466.563629 
	C302.265137,464.563324 303.207672,461.030029 300.663208,461.072021 
	C297.567535,461.123108 298.989136,464.718353 298.934174,466.738312 
	C298.748657,473.555420 298.863495,480.380707 298.863312,487.658752 
z"/>
<path fill="#030202" opacity="1.000000" stroke="none" 
	d="
M387.798828,485.587952 
	C387.467834,487.052673 386.714661,487.127594 385.823608,487.042877 
	C381.525818,486.634247 381.442291,489.165833 382.577606,492.082611 
	C383.900421,495.481018 385.688934,498.692078 386.469055,502.306519 
	C387.743835,508.212891 385.689392,513.175354 380.977844,515.410156 
	C376.621002,517.476685 367.517548,516.254150 365.171539,512.662842 
	C362.788513,509.014954 364.535095,504.648163 364.217377,500.670807 
	C365.774597,500.098602 366.592010,501.212158 367.634491,501.593964 
	C368.781433,502.013977 369.903595,502.195618 370.908417,501.309540 
	C372.144470,500.219452 371.767731,498.995667 371.253387,497.675385 
	C369.929413,494.276672 368.398804,490.918182 367.501892,487.402954 
	C366.242249,482.466187 366.823486,477.720825 371.162567,474.289948 
	C375.315796,471.005981 379.756470,471.651031 384.355621,473.491180 
	C387.103027,474.590424 388.226715,476.233093 387.905243,479.160431 
	C387.688599,481.133423 387.850708,483.148010 387.798828,485.587952 
z"/>
<path fill="#060404" opacity="1.000000" stroke="none" 
	d="
M252.015671,456.999695 
	C252.014923,462.990936 251.914902,468.484802 252.054413,473.972595 
	C252.126495,476.808563 251.248917,477.287384 248.543839,476.567261 
	C238.357788,473.855804 238.333267,473.947632 238.333313,463.534637 
	C238.333359,453.383942 238.384201,443.232880 238.302505,433.082825 
	C238.278290,430.074188 238.396957,428.430328 242.381104,429.694885 
	C251.946030,432.730682 252.015671,432.511261 252.015671,442.521820 
	C252.015671,447.181152 252.015671,451.840485 252.015671,456.999695 
z"/>
<path fill="#060404" opacity="1.000000" stroke="none" 
	d="
M351.114410,509.121399 
	C345.638092,508.315857 342.750336,505.084137 341.592621,500.364563 
	C340.357666,495.329803 344.354095,491.719940 349.237701,493.366852 
	C353.328918,494.746552 356.073639,497.728363 356.824982,501.929047 
	C357.522919,505.831024 356.255463,508.924286 351.114410,509.121399 
z"/>
<path fill="#050505" opacity="1.000000" stroke="none" 
	d="
M273.383789,483.833313 
	C266.769531,484.098450 261.963898,480.473450 261.220123,474.929749 
	C260.728271,471.263641 262.140350,468.464600 266.003265,468.106628 
	C270.738098,467.667816 273.752472,470.550110 275.762573,474.532898 
	C277.553040,478.080475 277.348267,481.284302 273.383789,483.833313 
z"/>
</svg>